<?xml version="1.0" standalone="no"?>
<!DOCTYPE svg PUBLIC "-//W3C//DTD SVG 20010904//EN"
 "http://www.w3.org/TR/2001/REC-SVG-20010904/DTD/svg10.dtd">
<svg version="1.0" xmlns="http://www.w3.org/2000/svg"
 width="3333.000000pt" height="1360.000000pt" viewBox="0 0 3333.000000 1360.000000"
 preserveAspectRatio="xMidYMid meet">

<g transform="translate(0.000000,1360.000000) scale(0.100000,-0.100000)"
fill="#000000" stroke="none">
<path d="M21407 11458 c-16 -12 -17 -73 -20 -788 l-2 -775 -78 -3 c-45 -2 -75
-7 -72 -12 3 -6 -1 -7 -9 -4 -9 3 -17 5 -18 3 -1 -2 -5 -125 -8 -274 l-5 -270
-58 -1 c-31 -1 -64 -7 -72 -14 -13 -11 -15 -60 -15 -311 l0 -299 -43 0 c-42 0
-80 -23 -76 -46 1 -5 1 -478 0 -1051 l-1 -1043 -230 0 -230 0 0 678 c0 645 -1
680 -18 695 -17 15 -57 17 -370 17 l-352 0 -1 388 c-1 213 -1 391 0 396 1 4
-5 19 -14 32 -15 24 -17 24 -200 24 l-185 0 0 138 c0 122 -2 141 -18 155 -17
15 -68 17 -524 17 -473 0 -506 -1 -521 -18 -13 -14 -17 -45 -19 -152 l-3 -135
-188 -3 -188 -2 -9 -26 c-7 -16 -9 -782 -8 -2119 2 -1627 0 -2091 -9 -2083 -7
5 -56 9 -110 8 -54 -1 -110 -1 -125 -1 l-28 1 0 1569 c0 1315 -2 1570 -14
1580 -7 6 -194 101 -415 212 -358 179 -403 199 -423 188 -13 -7 -26 -17 -30
-23 -5 -6 -8 -517 -8 -1136 l1 -1125 -163 0 -163 0 -3 743 c-1 483 -6 741 -12
737 -5 -3 -7 1 -4 9 4 10 -2 17 -20 22 -20 5 -48 -6 -123 -49 -178 -101 -282
-164 -278 -169 3 -3 -1 -5 -7 -5 -7 0 -40 -16 -73 -35 -33 -19 -108 -63 -168
-97 -63 -37 -104 -67 -101 -73 4 -7 2 -8 -4 -4 -13 8 -99 -38 -119 -62 -10
-13 -13 -303 -13 -1379 l0 -1363 -120 0 -120 0 0 258 c0 311 9 292 -128 292
l-92 0 -1 593 c0 325 -2 605 -3 621 -2 38 -30 56 -88 56 l-48 0 0 258 c0 289
-3 304 -60 312 l-35 5 -3 861 c-2 956 3 884 -70 890 -20 2 -40 3 -44 3 -4 1
-7 137 -8 304 0 270 -2 303 -17 315 -9 6 -25 12 -35 12 -17 0 -18 14 -18 216
0 139 -3 213 -10 209 -5 -3 -7 0 -4 8 6 16 -23 27 -73 27 l-33 0 0 143 c0 168
-7 187 -71 187 l-39 0 0 560 c0 547 0 560 -20 580 -24 24 -53 26 -74 4 -14
-14 -16 -80 -16 -580 l0 -564 -43 0 c-72 0 -77 -12 -77 -183 l0 -147 -38 0
c-76 0 -77 -1 -80 -244 -3 -205 -4 -216 -22 -216 -21 0 -52 -40 -49 -62 1 -7
1 -140 0 -295 l-1 -282 -33 6 c-23 3 -39 -1 -55 -14 l-23 -18 -2 -860 -2 -860
-39 -6 c-21 -3 -42 -12 -47 -20 -5 -8 -9 -134 -9 -281 l0 -268 -46 0 c-54 0
-88 -15 -80 -36 3 -9 1 -12 -4 -9 -7 4 -10 -206 -10 -609 l0 -616 -95 0 -95 0
0 919 c0 806 -2 920 -15 931 -11 9 -67 13 -193 14 l-177 1 -3 704 c-1 500 -5
708 -13 718 -8 8 -35 13 -80 13 l-69 0 0 143 c0 180 -3 187 -96 187 l-64 0 0
143 c0 127 -2 146 -18 160 -16 15 -52 17 -305 17 -246 0 -288 -2 -301 -16 -13
-13 -16 -42 -16 -160 l0 -144 -70 0 c-58 0 -71 -3 -80 -19 -5 -11 -10 -84 -10
-165 l0 -146 -69 0 c-46 0 -72 -5 -80 -14 -8 -10 -11 -294 -11 -1072 0 -583
-4 -1065 -8 -1072 -7 -9 -41 -12 -138 -10 l-129 3 -2 935 c-3 865 -4 936 -20
948 -13 9 -108 12 -393 12 -324 0 -379 -2 -398 -16 -22 -15 -22 -16 -22 -340
l0 -324 -80 0 -80 0 0 780 0 780 -117 175 -116 175 -276 1 c-152 1 -283 1
-291 -1 -34 -4 -40 -31 -40 -192 0 -157 0 -158 -22 -158 -126 -3 -159 -6 -173
-20 -14 -14 -16 -143 -18 -1160 l-2 -1145 -97 -3 -98 -3 -2 753 -3 753 -83
133 c-49 76 -88 129 -94 125 -6 -3 -8 -1 -4 5 11 18 -210 371 -246 391 -23 13
-29 13 -53 -3 -16 -11 -24 -23 -21 -32 3 -8 2 -13 -2 -10 -11 7 -164 -223
-156 -236 4 -6 3 -8 -3 -5 -14 9 -46 -40 -37 -55 4 -6 3 -8 -3 -5 -13 8 -126
-160 -118 -174 4 -5 1 -8 -7 -7 -7 2 -12 -5 -12 -14 1 -10 -3 -16 -10 -15 -6
1 -10 -6 -10 -15 1 -10 -2 -15 -7 -13 -4 3 -19 -11 -33 -32 l-26 -38 0 -1462
0 -1463 -185 0 -185 0 0 935 c0 922 0 935 -20 955 -19 19 -33 20 -295 20 -346
0 -317 17 -313 -188 l3 -147 -115 3 c-83 2 -120 -1 -133 -10 -17 -12 -18 -49
-20 -583 l-2 -570 -132 -3 -133 -3 0 870 c0 777 -2 871 -16 885 -11 12 -36 16
-90 16 l-74 0 0 98 c0 83 -3 102 -18 115 -16 15 -54 17 -333 17 -269 0 -318
-2 -337 -16 -20 -14 -22 -23 -22 -115 l0 -99 -74 0 c-54 0 -79 -4 -90 -16 -14
-14 -16 -148 -16 -1329 l0 -1314 -145 -3 c-133 -3 -145 -2 -145 15 0 9 0 698
0 1530 l0 1512 37 3 c73 7 73 6 73 273 0 234 0 238 -22 253 -18 13 -54 16
-185 16 l-163 0 -2 960 c-3 841 -5 962 -18 970 -21 14 -64 12 -78 -2 -9 -9
-12 -238 -12 -970 l0 -958 -135 0 -135 0 0 563 c0 493 -2 565 -16 585 -17 25
-65 30 -83 8 -9 -10 -12 -167 -11 -584 l0 -571 -166 -3 c-150 -3 -167 -5 -180
-22 -11 -16 -14 -67 -14 -250 0 -127 4 -237 9 -245 5 -8 14 -10 21 -6 9 5 11
4 6 -3 -5 -9 7 -12 38 -12 l46 0 -2 -1167 -3 -1168 -237 -3 -238 -2 0 634 c0
564 -2 636 -16 650 -11 12 -36 16 -94 16 -43 0 -85 3 -94 6 -14 5 -16 28 -16
154 0 146 0 148 -25 164 -22 14 -87 16 -597 16 -315 0 -583 -3 -594 -6 -37
-10 -46 -47 -38 -160 4 -56 4 -118 0 -139 l-7 -36 -89 2 c-60 1 -95 -3 -105
-11 -13 -11 -15 -191 -15 -1556 l0 -1544 -563 0 c-534 0 -565 -1 -580 -18 -21
-23 -22 -56 -1 -76 14 -14 81 -16 622 -14 l606 3 13 25 c10 20 13 341 13 1551
0 1383 1 1527 16 1533 9 3 51 6 94 6 52 0 81 4 88 13 7 8 13 73 14 163 l3 149
518 3 517 2 0 -154 c0 -123 3 -156 15 -166 9 -7 51 -13 107 -13 l93 -2 2 -635
c3 -633 3 -635 24 -653 19 -15 51 -17 330 -17 296 0 310 1 329 20 20 20 20 33
20 1260 0 1227 0 1240 -20 1260 -13 13 -33 20 -60 20 l-40 0 0 160 0 160 500
0 500 0 0 -160 0 -160 -38 0 c-21 0 -46 -6 -55 -12 -16 -12 -17 -121 -17
-1632 0 -1297 2 -1621 12 -1628 7 -4 117 -8 245 -8 220 0 233 1 243 19 7 13
10 446 10 1330 l0 1311 74 0 c102 0 106 5 106 131 l0 99 245 0 245 0 0 -103
c0 -67 4 -107 12 -115 7 -7 43 -12 90 -12 l78 0 0 -868 c0 -829 1 -870 18
-885 16 -15 47 -17 223 -17 220 0 235 3 243 50 3 14 5 271 5 571 l1 546 116 1
c73 1 121 5 130 13 11 9 14 45 14 165 l0 154 203 -2 202 -3 5 -940 5 -939 25
-13 c19 -10 87 -13 278 -11 238 3 255 4 268 22 12 17 14 238 14 1497 0 975 3
1480 10 1484 15 9 12 27 -2 19 -8 -4 -10 -3 -5 2 5 5 12 9 17 9 13 0 81 106
74 116 -3 5 -1 8 4 7 15 -4 164 220 156 234 -4 6 -3 8 3 5 6 -4 31 25 57 63
25 39 50 70 54 70 5 0 16 -15 25 -32 10 -18 44 -76 77 -128 33 -52 85 -137
116 -187 32 -52 61 -90 67 -86 6 3 7 1 3 -5 -3 -6 7 -32 24 -58 l30 -48 0
-773 c0 -753 0 -773 19 -783 11 -6 91 -10 188 -10 186 0 206 5 209 56 1 16 3
534 3 1152 l1 1123 91 -3 c122 -4 119 -9 119 194 l0 158 218 0 217 -1 65 -98
c36 -54 69 -96 74 -93 5 3 6 1 3 -5 -3 -5 5 -26 18 -46 l25 -36 0 -793 c0
-702 2 -796 16 -816 15 -21 21 -22 179 -22 152 0 165 1 175 19 6 13 10 138 10
340 l0 321 305 0 305 0 0 -22 c0 -13 0 -431 0 -931 0 -892 1 -908 20 -927 19
-19 34 -20 228 -20 190 0 210 2 225 18 16 17 17 107 17 1085 l0 1067 69 0 c98
0 101 5 101 187 l0 143 60 0 c95 0 100 9 100 180 l0 140 210 0 210 0 0 -144
c0 -171 3 -176 102 -176 l58 0 0 -148 c0 -178 2 -182 98 -182 l62 0 2 -705 c2
-481 6 -707 14 -715 6 -6 79 -11 192 -12 l182 -1 0 -917 c0 -876 1 -918 18
-933 16 -15 45 -17 195 -17 164 0 177 1 187 19 6 13 10 230 10 635 l0 616 54
0 c89 0 86 -10 86 299 l0 268 41 7 c31 5 40 10 35 22 -3 8 -2 13 3 10 5 -3 12
1 15 10 3 9 6 396 6 860 l0 844 34 0 c19 0 44 8 55 18 22 17 22 21 21 314 l0
298 35 14 35 15 2 218 3 218 45 3 c24 2 50 8 57 14 10 8 13 52 13 164 l0 154
60 0 60 0 0 -155 c0 -174 0 -175 79 -175 l41 0 0 -210 c0 -197 1 -211 20 -230
11 -11 27 -20 35 -20 12 0 15 -46 17 -305 2 -221 6 -307 15 -316 7 -7 33 -13
58 -13 l45 -1 0 -857 c0 -845 0 -858 20 -878 11 -11 33 -20 50 -20 l30 0 0
-274 c0 -210 3 -276 13 -284 7 -6 37 -12 67 -14 l55 -3 3 -619 c1 -437 5 -623
13 -633 8 -9 40 -13 110 -13 l99 0 0 -256 c0 -157 4 -263 10 -275 10 -18 23
-19 218 -19 149 0 211 3 220 12 9 9 12 332 12 1393 l0 1382 50 27 c29 16 48
32 44 38 -4 7 -2 8 4 4 13 -8 225 112 218 123 -3 4 3 7 12 7 9 0 94 46 188
102 95 56 175 102 178 102 3 0 7 -324 8 -720 2 -574 6 -722 16 -732 16 -16
488 -23 512 -8 13 8 16 155 20 1129 l5 1119 333 -165 332 -166 0 -1583 0
-1583 22 -15 c33 -23 413 -23 446 0 l22 15 0 2100 0 2099 180 0 c233 0 220
-10 220 175 l0 135 430 0 430 0 0 -139 c0 -182 -14 -171 222 -171 l177 0 0
-406 c1 -287 4 -411 12 -420 9 -11 80 -14 370 -14 l359 0 0 -673 c0 -593 2
-675 16 -695 15 -22 16 -22 323 -22 230 0 311 3 324 13 16 11 17 90 20 1072
l2 1060 38 -3 c26 -3 45 2 58 14 18 16 19 34 19 311 0 272 1 293 18 294 59 1
105 9 117 19 12 10 15 62 17 279 l3 266 128 1 127 1 0 -182 c0 -163 2 -184 18
-198 15 -14 48 -17 190 -19 l173 -3 1 -157 c0 -101 4 -163 12 -172 11 -15 39
-24 84 -25 l22 -1 0 -195 c0 -231 1 -235 95 -235 l55 0 0 -1255 c0 -1242 0
-1255 20 -1275 19 -19 33 -20 203 -20 142 0 188 3 203 14 18 14 19 38 24 868
l6 853 46 160 c52 182 108 383 108 390 0 3 123 5 274 5 l274 -1 36 -132 c97
-351 110 -395 118 -391 4 3 8 -660 8 -1473 0 -1299 2 -1480 15 -1500 15 -23
16 -23 264 -23 196 0 251 3 260 14 8 9 12 725 13 2667 l3 2654 378 3 377 2 0
-22 c0 -13 0 -187 1 -387 l0 -365 46 -63 c26 -34 51 -59 56 -56 6 3 7 1 3 -5
-4 -7 22 -50 59 -98 l65 -87 0 -293 c0 -161 3 -299 6 -308 3 -9 11 -13 17 -9
6 3 7 1 3 -5 -9 -15 43 -84 57 -75 6 3 7 1 3 -5 -7 -12 89 -147 104 -147 5 0
12 -4 17 -9 5 -5 3 -6 -4 -2 -7 4 -13 3 -13 -2 0 -13 26 -33 33 -26 3 3 6
-169 7 -382 1 -345 2 -390 17 -406 15 -17 37 -18 292 -16 l275 3 13 25 c10 20
13 339 13 1539 l0 1514 65 -7 c202 -21 420 -125 581 -278 42 -40 80 -73 84
-73 5 0 12 -4 17 -9 5 -5 3 -6 -4 -2 -21 12 -15 -4 16 -43 15 -20 33 -46 40
-59 7 -12 17 -20 23 -16 6 4 8 3 5 -4 -4 -5 8 -41 27 -79 83 -165 106 -287
106 -575 0 -234 -4 -221 86 -264 132 -62 248 -183 314 -327 62 -134 60 -76 60
-1640 0 -1238 2 -1426 15 -1437 10 -9 96 -12 332 -11 284 1 319 3 331 18 9 13
12 171 12 709 l0 691 27 39 c14 21 55 81 90 132 l63 92 0 389 c0 333 2 390 15
401 16 13 21 35 6 25 -5 -3 -12 -1 -16 4 -3 6 3 8 13 6 21 -4 33 5 95 72 l47
52 0 382 0 382 38 51 c155 205 282 388 276 398 -4 6 -3 8 4 4 6 -3 17 3 26 15
18 27 26 22 77 -51 23 -33 46 -57 52 -53 6 3 7 1 3 -6 -8 -13 42 -78 56 -73 5
1 7 -2 4 -7 -4 -5 39 -72 94 -147 l100 -138 0 -380 0 -381 80 -87 80 -86 0
-387 0 -387 67 -99 c36 -54 71 -95 76 -92 6 3 7 1 3 -6 -4 -6 2 -23 13 -37 21
-27 21 -30 21 -1120 l0 -1093 23 -16 c19 -13 59 -15 269 -15 217 1 250 3 268
18 20 17 20 21 23 1287 l2 1270 540 0 540 0 5 -2108 c5 -2073 5 -2109 24
-2123 17 -12 111 -14 571 -14 482 0 553 2 573 16 28 20 30 69 3 84 -13 6 -201
10 -540 10 l-521 0 0 2103 c0 1692 -3 2107 -13 2121 -12 16 -53 17 -632 17
-341 -1 -623 -1 -627 -1 -4 0 -14 -7 -22 -16 -14 -14 -16 -144 -16 -1283 l0
-1268 -158 -1 c-87 -1 -168 1 -180 5 l-22 5 0 1061 0 1060 -26 44 c-14 24 -54
84 -90 133 l-64 89 0 393 0 393 -31 38 c-18 21 -36 34 -42 30 -7 -3 -9 -3 -5
2 4 4 -13 31 -37 60 l-45 52 0 376 0 375 -33 44 c-18 24 -54 73 -81 111 -27
38 -52 64 -58 60 -7 -3 -8 -1 -4 6 4 6 -44 82 -118 183 l-126 172 0 666 c0
720 1 703 -53 703 -60 0 -57 36 -57 -697 -1 -567 -3 -674 -15 -690 -8 -10 -12
-23 -9 -28 3 -5 1 -7 -4 -6 -13 4 -123 -147 -120 -163 2 -7 -4 -13 -12 -14 -8
0 -14 -8 -14 -17 1 -10 -2 -16 -6 -15 -12 4 -62 -62 -55 -73 4 -6 2 -9 -3 -8
-6 2 -49 -49 -96 -112 l-85 -115 -1 -378 0 -379 -81 -88 -81 -89 1 -391 2
-390 -91 -132 -90 -132 0 -673 0 -673 -30 0 c-39 -1 -406 -1 -425 0 -13 0 -15
175 -17 1423 l-3 1422 -23 75 c-13 41 -41 108 -63 150 -44 85 -124 187 -142
182 -7 -2 -9 -1 -5 3 13 13 -74 84 -166 135 l-54 31 -4 227 c-5 206 -8 236
-32 326 -15 54 -42 135 -62 180 -42 96 -144 252 -163 248 -7 -1 -9 2 -6 9 11
18 -141 160 -242 226 -103 68 -228 124 -347 154 -98 25 -270 39 -300 24 l-21
-11 -5 -1529 c-3 -842 -6 -1531 -8 -1532 -1 -2 -87 -3 -192 -3 l-190 0 0 356
c0 231 -3 353 -10 349 -5 -3 -8 0 -5 7 3 7 -44 78 -105 158 l-109 145 -1 298
c0 285 -6 347 -30 332 -5 -3 -12 0 -16 6 -4 8 -3 9 4 5 23 -14 11 4 -76 121
-49 65 -94 128 -100 140 -9 15 -12 139 -12 427 0 390 -1 406 -19 416 -13 6
-178 10 -468 10 -372 0 -453 -2 -469 -14 -19 -14 -19 -54 -22 -2670 l-2 -2656
-165 0 -165 0 0 1418 0 1419 -90 329 c-60 219 -95 333 -107 342 -24 17 -672
17 -696 0 -11 -9 -48 -122 -104 -323 l-88 -310 -5 -820 -5 -820 -110 0 -110 0
-5 1262 c-3 694 -9 1265 -13 1270 -5 4 -36 10 -70 13 l-62 5 -2 199 c-2 226
-4 231 -73 230 -34 -1 -40 2 -41 20 0 11 0 78 1 148 1 124 -6 162 -34 180 -6
4 -89 8 -183 8 l-173 0 0 179 c0 216 3 211 -106 211 l-74 0 0 768 c0 678 -2
770 -16 790 -17 24 -51 29 -77 10z"/>
<path d="M24276 9998 c-14 -20 -16 -107 -16 -739 0 -681 1 -717 18 -732 22
-20 63 -22 80 -5 9 9 12 187 12 739 0 648 -2 729 -16 743 -22 23 -60 20 -78
-6z"/>
<path d="M24576 9998 c-14 -20 -16 -105 -16 -728 0 -388 3 -715 6 -728 8 -27
46 -39 80 -23 l24 11 0 734 c0 717 0 736 -19 746 -31 16 -59 12 -75 -12z"/>
<path d="M26095 9824 c-12 -12 -19 -241 -9 -269 8 -20 124 -22 124 -2 0 6 1
69 2 139 1 70 -1 131 -5 135 -12 12 -99 9 -112 -3z"/>
<path d="M26339 9829 c-7 -4 -15 -208 -10 -276 1 -9 20 -13 60 -13 50 0 59 3
64 20 9 36 6 251 -3 245 -6 -3 -7 1 -4 9 3 9 2 17 -2 17 -33 4 -97 3 -105 -2z"/>
<path d="M26088 9098 c-10 -28 -9 -235 1 -261 10 -26 14 -27 61 -24 28 2 53 7
56 10 5 4 9 228 5 275 -1 8 -20 12 -60 12 -38 0 -60 -4 -63 -12z"/>
<path d="M26334 9098 c-9 -14 -9 -267 0 -275 3 -3 28 -7 56 -9 39 -2 52 1 59
14 10 19 14 235 5 265 -4 13 -17 17 -59 17 -31 0 -57 -5 -61 -12z"/>
<path d="M21345 9030 c3 -5 0 -7 -9 -4 -24 9 -39 -31 -24 -64 l13 -27 259 -3
c230 -2 261 0 278 14 24 22 23 49 -2 74 -19 19 -33 20 -271 20 -162 0 -248 -3
-244 -10z"/>
<path d="M28517 8932 c-20 -22 -22 -63 -5 -80 9 -9 73 -12 225 -12 200 0 213
1 223 19 15 29 12 49 -10 71 -19 19 -33 20 -218 20 -180 0 -200 -2 -215 -18z"/>
<path d="M26833 8884 c-9 -4 -13 -29 -13 -75 0 -79 4 -83 101 -77 l54 3 0 75
0 75 -65 2 c-36 1 -71 -1 -77 -3z"/>
<path d="M21320 8600 c-24 -24 -25 -38 -4 -68 15 -22 18 -22 274 -22 222 0
261 2 274 16 21 21 20 57 -2 77 -16 15 -50 17 -270 17 -239 0 -253 -1 -272
-20z m541 -57 c-12 -20 -14 -14 -5 12 4 9 9 14 11 11 3 -2 0 -13 -6 -23z"/>
<path d="M28523 8575 c-25 -18 -31 -63 -11 -83 9 -9 71 -12 219 -12 225 0 239
3 239 55 0 47 -26 54 -234 55 -159 0 -195 -2 -213 -15z"/>
<path d="M18211 8431 c-8 -5 -10 -14 -6 -21 5 -9 4 -11 -3 -6 -9 5 -12 -23
-12 -104 0 -81 3 -109 12 -104 7 5 8 3 3 -6 -14 -22 17 -30 123 -30 136 0 139
3 141 135 2 142 0 145 -137 145 -59 0 -113 -4 -121 -9z"/>
<path d="M18666 8424 c-13 -12 -16 -38 -16 -122 0 -59 5 -114 10 -122 7 -11
35 -16 115 -18 151 -5 153 -4 154 134 2 144 2 144 -140 144 -84 0 -111 -3
-123 -16z"/>
<path d="M19125 8423 c-14 -13 -16 -34 -13 -130 2 -88 6 -116 18 -123 8 -5 63
-10 121 -10 137 0 136 0 138 139 2 140 2 141 -140 141 -87 0 -111 -3 -124 -17z"/>
<path d="M26090 8364 c-6 -14 -10 -70 -10 -124 0 -54 4 -110 10 -124 8 -23 15
-26 59 -26 28 0 53 5 57 12 4 6 7 69 7 138 0 69 -3 132 -7 138 -4 7 -29 12
-57 12 -44 0 -51 -3 -59 -26z"/>
<path d="M26335 8380 c-9 -15 -10 -265 -1 -279 4 -6 29 -11 56 -11 37 0 52 4
59 18 13 24 12 253 -1 269 -13 16 -104 17 -113 3z"/>
<path d="M26827 8344 c-4 -4 -7 -38 -7 -75 0 -79 4 -83 101 -77 l54 3 0 75 0
75 -70 3 c-39 1 -74 0 -78 -4z"/>
<path d="M9599 8293 c-7 -48 -9 -82 -4 -100 5 -21 11 -23 65 -23 l60 0 0 65 0
65 -60 0 c-33 0 -61 -3 -61 -7z"/>
<path d="M9837 8288 c-4 -11 -3 -84 2 -110 0 -5 28 -8 61 -8 l61 0 -3 63 -3
62 -56 3 c-40 2 -58 -1 -62 -10z"/>
<path d="M10079 8293 c-4 -27 -4 -100 -1 -110 3 -9 25 -13 63 -13 l59 0 0 65
0 65 -60 0 c-33 0 -60 -3 -61 -7z"/>
<path d="M24277 8282 c-16 -17 -17 -83 -17 -740 0 -785 -2 -752 55 -752 57 0
55 -34 55 755 0 644 -2 725 -16 739 -21 21 -57 20 -77 -2z"/>
<path d="M24575 8276 c-14 -20 -15 -108 -13 -745 3 -781 0 -740 55 -741 55 0
53 -31 53 757 0 680 -1 727 -17 739 -28 21 -61 17 -78 -10z"/>
<path d="M28544 8221 c4 -5 -3 -7 -14 -4 -24 6 -38 -37 -21 -73 l11 -24 209 0
c177 0 212 2 225 16 20 20 20 43 0 72 -15 21 -20 22 -215 22 -117 0 -198 -4
-195 -9z"/>
<path d="M21316 8178 c-11 -15 -12 -24 -5 -29 8 -5 8 -8 0 -10 -8 -3 -6 -11 4
-27 16 -22 18 -22 275 -22 258 0 260 0 274 23 17 25 16 48 -3 71 -12 14 -47
16 -272 16 -254 0 -258 0 -273 -22z"/>
<path d="M24927 8104 c-4 -4 -7 -38 -7 -75 0 -77 2 -79 91 -79 68 0 72 7 67
101 l-3 54 -70 3 c-39 1 -74 0 -78 -4z"/>
<path d="M22922 8022 c-9 -7 -12 -43 -10 -148 l3 -139 48 -3 c74 -5 77 1 77
147 0 85 -4 131 -12 139 -14 14 -86 16 -106 4z"/>
<path d="M23176 8022 c-9 -16 -8 -274 2 -284 5 -5 31 -8 58 -6 l49 3 0 145 0
145 -52 3 c-28 2 -54 -1 -57 -6z"/>
<path d="M14045 7937 c-20 -11 -21 -100 -1 -116 7 -6 28 -9 47 -7 l34 3 3 60
3 61 -35 4 c-20 2 -43 0 -51 -5z"/>
<path d="M9597 7933 c-12 -11 -7 -100 6 -111 12 -10 54 -13 95 -6 20 4 22 10
22 64 l0 60 -58 0 c-32 0 -62 -3 -65 -7z"/>
<path d="M9838 7884 c-4 -66 8 -77 75 -72 l42 3 3 63 3 62 -60 0 -59 0 -4 -56z"/>
<path d="M10079 7935 c0 -3 -1 -29 -1 -57 -1 -52 0 -53 34 -62 19 -5 47 -6 62
-2 24 6 26 10 26 66 l0 60 -60 0 c-33 0 -60 -2 -61 -5z"/>
<path d="M14220 7880 c0 -55 2 -60 25 -66 14 -3 36 -3 50 0 23 6 25 11 25 66
l0 60 -50 0 -50 0 0 -60z"/>
<path d="M14410 7880 c0 -55 2 -60 24 -66 13 -3 35 -4 47 -2 22 3 24 9 27 66
l3 62 -51 0 -50 0 0 -60z"/>
<path d="M28326 7857 c-21 -16 -24 -60 -6 -82 11 -13 69 -15 411 -15 432 0
429 0 429 55 0 54 -11 55 -430 55 -305 0 -390 -3 -404 -13z"/>
<path d="M26830 7791 c-12 -23 -13 -111 -1 -129 5 -9 28 -12 77 -10 l69 3 3
69 c4 82 0 86 -80 86 -47 0 -59 -4 -68 -19z"/>
<path d="M21317 7762 c-20 -22 -15 -62 10 -79 12 -10 82 -13 263 -13 206 0
249 3 268 16 27 18 29 55 4 77 -16 15 -50 17 -274 17 -233 0 -256 -2 -271 -18z"/>
<path d="M11981 7658 c-5 -13 -9 -66 -10 -119 -3 -129 -2 -129 139 -129 141 0
140 -1 140 131 0 143 4 139 -141 139 -115 0 -120 -1 -128 -22z"/>
<path d="M12422 7668 c-8 -8 -12 -51 -12 -129 0 -97 3 -118 16 -123 30 -11
229 -7 242 6 13 13 17 212 6 242 -5 13 -26 16 -123 16 -78 0 -121 -4 -129 -12z"/>
<path d="M26100 7660 c-12 -7 -15 -35 -16 -137 -1 -70 1 -134 4 -140 2 -9 25
-13 63 -13 40 0 59 4 60 13 0 6 1 70 1 141 1 99 -3 130 -13 137 -19 12 -80 11
-99 -1z"/>
<path d="M26342 7662 c-9 -6 -13 -44 -13 -138 0 -71 0 -135 0 -141 1 -9 20
-13 61 -13 73 0 71 -3 68 163 -2 92 -6 120 -18 127 -18 12 -80 13 -98 2z"/>
<path d="M19783 7653 c-9 -3 -13 -26 -13 -64 l0 -59 50 0 51 0 -3 63 -3 62
-35 1 c-19 1 -41 -1 -47 -3z"/>
<path d="M19964 7651 c-2 -2 -4 -31 -4 -63 l0 -58 50 0 50 0 0 60 c0 41 -4 60
-12 62 -30 3 -80 3 -84 -1z"/>
<path d="M20148 7608 c-7 -72 -2 -79 50 -76 l46 3 0 55 -1 55 -45 3 -46 3 -4
-43z"/>
<path d="M16982 7614 l-22 -15 0 -1279 c0 -1149 2 -1280 16 -1294 21 -21 57
-20 77 2 16 17 17 121 17 1294 0 1156 -1 1277 -16 1289 -23 19 -48 20 -72 3z"/>
<path d="M17216 7614 c-14 -14 -16 -183 -16 -1708 0 -1343 3 -1696 13 -1703
29 -23 48 -23 73 2 l24 24 0 1670 c0 1104 -3 1679 -10 1696 -7 18 -15 25 -26
21 -8 -3 -12 -2 -9 4 10 16 -32 11 -49 -6z"/>
<path d="M24985 7620 l-60 -5 -3 -65 c-4 -80 4 -87 89 -80 l64 5 3 71 c3 83 4
82 -93 74z"/>
<path d="M8476 7578 c-21 -30 -20 -44 4 -68 19 -19 33 -20 220 -20 187 0 201
1 220 20 22 22 25 42 10 71 -10 18 -23 19 -225 19 -210 0 -214 0 -229 -22z"/>
<path d="M9599 7583 c0 -5 -2 -24 -5 -43 -3 -19 -2 -45 1 -57 5 -21 11 -23 65
-23 l60 0 0 65 0 65 -60 0 c-33 0 -60 -3 -61 -7z"/>
<path d="M9835 7568 c-5 -19 -3 -52 4 -100 0 -5 28 -8 61 -8 l61 0 -3 63 -3
62 -57 3 c-53 3 -58 1 -63 -20z"/>
<path d="M10079 7580 c0 -5 -1 -30 -1 -55 0 -25 1 -49 1 -55 1 -5 28 -10 61
-10 l60 0 0 65 0 65 -60 0 c-33 0 -60 -4 -61 -10z"/>
<path d="M18206 7554 c-20 -20 -23 -223 -4 -242 8 -8 51 -12 130 -12 144 0
141 -3 136 146 -2 80 -7 107 -18 114 -8 5 -63 10 -122 10 -84 0 -110 -3 -122
-16z"/>
<path d="M18666 7554 c-22 -22 -23 -226 -1 -244 15 -12 228 -16 247 -4 5 3 7
13 4 21 -3 8 -2 11 3 8 13 -7 12 194 0 217 -8 16 -25 18 -124 18 -90 0 -117
-3 -129 -16z"/>
<path d="M19126 7554 c-12 -12 -16 -38 -16 -115 0 -143 -4 -139 138 -139 79 0
122 4 130 12 8 8 12 49 12 119 0 141 2 139 -140 139 -85 0 -112 -3 -124 -16z"/>
<path d="M14035 7517 c-4 -13 -5 -41 -3 -63 3 -39 3 -39 51 -42 l48 -3 -3 63
-3 63 -42 3 c-38 3 -43 0 -48 -21z"/>
<path d="M14224 7526 c-3 -7 -4 -35 -2 -62 l3 -49 48 -3 47 -3 0 65 0 66 -45
0 c-30 0 -48 -5 -51 -14z"/>
<path d="M14417 7534 c-4 -4 -7 -34 -7 -66 l0 -58 50 0 51 0 -3 63 -3 62 -40
3 c-23 2 -44 0 -48 -4z"/>
<path d="M28328 7498 c-26 -20 -27 -58 -2 -82 13 -14 65 -16 409 -16 427 0
425 0 425 55 0 55 2 55 -424 55 -298 0 -396 -3 -408 -12z"/>
<path d="M10841 7446 c-9 -10 -12 -349 -11 -1337 l0 -1324 21 -18 c24 -19 56
-14 76 12 10 12 12 310 13 1326 0 1170 -2 1313 -16 1333 -17 25 -65 30 -83 8z"/>
<path d="M11086 7444 c-14 -13 -16 -64 -16 -403 0 -363 1 -389 18 -404 24 -22
55 -21 75 1 15 17 17 59 17 398 0 327 -2 383 -16 402 -18 26 -56 29 -78 6z"/>
<path d="M21322 7352 c-22 -15 -23 -57 -1 -80 19 -21 26 -22 268 -22 235 0
248 1 269 20 26 24 28 52 6 74 -13 14 -52 16 -272 16 -141 0 -263 -4 -270 -8z"/>
<path d="M22917 7334 c-13 -13 -8 -269 5 -282 15 -15 57 -16 93 -2 l26 10 -3
137 -3 138 -55 3 c-31 2 -59 0 -63 -4z"/>
<path d="M23175 7329 c-4 -6 -7 -70 -7 -141 0 -98 3 -133 14 -139 15 -10 54
-11 86 -3 22 6 23 8 20 148 l-3 141 -52 3 c-31 2 -54 -2 -58 -9z"/>
<path d="M4586 7258 c-21 -30 -20 -44 4 -68 19 -19 33 -20 260 -20 227 0 241
1 260 20 25 25 26 52 2 73 -16 15 -50 17 -265 17 -243 0 -246 0 -261 -22z"/>
<path d="M26829 7254 c-6 -7 -9 -41 -7 -76 l3 -63 75 0 75 0 3 69 c2 49 -1 72
-10 78 -19 12 -127 6 -139 -8z"/>
<path d="M9597 7223 c-2 -5 -4 -30 -3 -58 l1 -50 45 -5 c76 -9 80 -6 80 61 l0
59 -59 0 c-33 0 -62 -3 -64 -7z"/>
<path d="M9839 7226 c-2 -2 -2 -29 -1 -59 l4 -55 42 -4 c74 -6 76 -4 76 63 l0
59 -58 0 c-32 0 -61 -2 -63 -4z"/>
<path d="M10077 7223 c-2 -5 -2 -31 1 -60 l4 -51 42 -4 c74 -6 76 -4 76 63 l0
59 -59 0 c-33 0 -62 -3 -64 -7z"/>
<path d="M8476 7188 c-21 -30 -20 -44 4 -68 19 -19 33 -20 218 -20 163 0 201
3 220 16 27 18 29 55 4 77 -16 15 -47 17 -225 17 -201 0 -206 0 -221 -22z"/>
<path d="M30204 7187 c-2 -7 -3 -78 -2 -157 l3 -145 44 -3 c28 -2 47 1 52 10
10 15 12 268 3 292 -8 20 -92 23 -100 3z"/>
<path d="M30524 7187 c-2 -7 -3 -78 -2 -157 l3 -145 44 -3 c28 -2 47 1 52 10
10 15 12 268 3 292 -8 20 -92 23 -100 3z"/>
<path d="M30842 7187 c-6 -7 -11 -67 -11 -147 0 -80 5 -140 11 -147 16 -19 94
-17 102 3 12 30 7 279 -6 292 -16 16 -83 15 -96 -1z"/>
<path d="M19774 7176 c-3 -7 -4 -35 -2 -62 l3 -49 45 0 45 0 3 63 3 62 -46 0
c-29 0 -47 -5 -51 -14z"/>
<path d="M19960 7125 l0 -66 48 3 47 3 0 60 0 60 -47 3 -48 3 0 -66z"/>
<path d="M20149 7171 c-1 -12 -1 -30 -1 -41 0 -71 -1 -70 46 -70 49 0 52 3 51
75 l0 50 -47 3 c-42 3 -48 1 -49 -17z"/>
<path d="M28226 7144 c-21 -21 -20 -57 2 -77 17 -15 67 -17 509 -17 462 0 491
1 506 18 23 26 21 58 -5 76 -20 14 -85 16 -510 16 -429 0 -488 -2 -502 -16z"/>
<path d="M11983 7128 c-11 -19 -13 -219 -2 -240 8 -16 25 -18 124 -18 146 0
145 -1 145 131 0 143 4 139 -140 139 -84 0 -121 -4 -127 -12z"/>
<path d="M12422 7128 c-17 -17 -17 -229 0 -246 8 -8 50 -12 125 -12 101 0 113
2 123 19 14 28 13 224 -2 239 -8 8 -50 12 -123 12 -73 0 -115 -4 -123 -12z"/>
<path d="M24932 7131 c-9 -5 -12 -28 -10 -77 l3 -69 75 0 75 0 3 63 c2 38 -2
69 -9 78 -13 15 -115 20 -137 5z"/>
<path d="M14037 7123 c-9 -8 -9 -86 -1 -107 4 -11 19 -16 50 -16 l44 0 0 65 0
65 -43 0 c-24 0 -47 -3 -50 -7z"/>
<path d="M14227 7123 c-9 -8 -9 -86 -1 -107 4 -11 19 -16 50 -16 l44 0 0 65 0
65 -43 0 c-24 0 -47 -3 -50 -7z"/>
<path d="M14412 7068 l3 -63 45 0 45 0 0 60 0 60 -48 3 -48 3 3 -63z"/>
<path d="M25406 7081 c-19 -21 -21 -62 -4 -79 17 -17 412 -17 402 0 -5 7 -3 8
6 3 14 -9 30 11 30 38 0 9 -9 26 -20 37 -19 19 -32 21 -210 20 -166 -1 -190
-4 -204 -19z"/>
<path d="M21320 6930 c-20 -20 -22 -67 -1 -63 5 2 8 -4 5 -12 -4 -10 0 -15 12
-15 11 0 132 0 269 0 222 0 251 2 263 17 18 24 15 50 -8 73 -19 19 -33 20
-270 20 -236 0 -251 -1 -270 -20z"/>
<path d="M26087 6926 c-12 -30 -5 -257 8 -270 13 -12 101 -14 113 -2 4 5 6
235 3 279 -1 4 -28 7 -60 7 -42 0 -60 -4 -64 -14z"/>
<path d="M26333 6928 c-4 -7 -6 -65 -3 -130 3 -64 2 -114 -2 -111 -14 8 -8
-15 7 -31 12 -12 28 -14 63 -9 26 3 50 11 55 17 8 12 8 242 0 263 -7 17 -107
18 -120 1z"/>
<path d="M4586 6901 c-21 -23 -13 -67 14 -81 11 -6 121 -10 254 -10 223 0 237
1 256 20 24 24 25 38 4 68 -15 22 -18 22 -263 22 -230 0 -249 -1 -265 -19z"/>
<path d="M9596 6858 c-6 -29 -6 -57 0 -86 4 -21 9 -23 62 -20 l57 3 3 63 3 62
-60 0 c-55 0 -61 -2 -65 -22z"/>
<path d="M9839 6873 c-4 -26 -5 -100 -1 -110 3 -9 25 -13 63 -13 l59 0 0 65 0
65 -60 0 c-33 0 -61 -3 -61 -7z"/>
<path d="M10079 6873 c-1 -14 -2 -78 0 -100 1 -21 6 -23 61 -23 l60 0 0 65 0
65 -60 0 c-33 0 -60 -3 -61 -7z"/>
<path d="M8476 6798 c-21 -30 -20 -44 4 -68 19 -19 33 -20 224 -20 200 0 205
0 220 22 21 29 20 51 -2 71 -16 15 -47 17 -225 17 -201 0 -206 0 -221 -22z"/>
<path d="M28227 6782 c-22 -24 -22 -55 1 -75 17 -15 67 -17 510 -17 l492 0 17
26 c15 24 15 29 2 53 l-15 26 -495 3 c-472 2 -496 2 -512 -16z"/>
<path d="M5926 6714 c-14 -14 -16 -162 -16 -1479 l0 -1465 24 -15 c20 -14 29
-14 48 -4 13 7 26 17 30 23 4 6 8 665 8 1463 0 1441 0 1453 -20 1473 -24 24
-53 26 -74 4z"/>
<path d="M6152 6714 l-22 -15 0 -1135 c0 -1121 0 -1134 20 -1154 24 -24 38
-25 68 -4 l22 15 0 1138 c0 1090 -1 1139 -18 1154 -23 21 -41 21 -70 1z"/>
<path d="M6384 6722 c-32 -21 -33 -49 -34 -986 l0 -937 24 -24 c24 -24 53 -35
41 -15 -3 5 0 7 8 5 7 -3 21 3 30 13 16 18 17 85 15 971 -3 930 -3 953 -22
967 -22 15 -45 18 -62 6z"/>
<path d="M14043 6723 c-8 -3 -13 -25 -13 -59 0 -48 3 -56 24 -65 14 -7 36 -9
51 -5 25 6 26 9 23 69 l-3 62 -35 2 c-19 1 -41 -1 -47 -4z"/>
<path d="M14233 6723 c-18 -6 -17 -107 0 -121 11 -9 33 -10 80 -3 4 0 7 28 7
61 0 33 -3 61 -7 61 -36 5 -70 6 -80 2z"/>
<path d="M14415 6722 c-3 -3 -5 -31 -5 -63 0 -63 6 -69 65 -66 l30 2 0 65 0
64 -42 2 c-23 1 -45 -1 -48 -4z"/>
<path d="M19776 6722 c-3 -3 -6 -32 -6 -64 l0 -58 50 0 51 0 -3 62 -3 63 -42
2 c-23 0 -44 -1 -47 -5z"/>
<path d="M19966 6722 c-3 -3 -6 -32 -6 -64 l0 -59 48 3 47 3 0 60 0 60 -42 1
c-23 1 -44 -1 -47 -4z"/>
<path d="M20157 6722 c-5 -7 -10 -72 -8 -104 1 -14 10 -18 46 -18 l45 0 0 65
0 65 -39 0 c-22 0 -42 -3 -44 -8z"/>
<path d="M25412 6704 c-24 -17 -30 -62 -10 -82 9 -9 69 -12 208 -12 183 0 198
1 215 20 23 26 13 68 -21 80 -14 6 -103 10 -197 10 -140 0 -177 -3 -195 -16z"/>
<path d="M26824 6706 c-3 -7 -4 -40 -2 -72 l3 -59 75 0 75 0 3 73 3 72 -76 0
c-55 0 -77 -4 -81 -14z"/>
<path d="M18202 6688 c-8 -8 -12 -50 -12 -125 0 -101 2 -113 19 -123 25 -13
221 -13 241 0 19 12 27 190 11 233 l-11 27 -118 0 c-78 0 -122 -4 -130 -12z"/>
<path d="M18660 6681 c-15 -28 -13 -213 3 -234 11 -15 28 -17 132 -15 107 3
120 5 119 20 -1 10 2 15 7 12 13 -7 11 193 -1 217 -10 17 -22 19 -130 19 -108
0 -120 -2 -130 -19z"/>
<path d="M19120 6681 c-5 -11 -10 -63 -10 -116 0 -138 -4 -135 140 -135 144 0
140 -3 140 135 0 138 4 135 -140 135 -108 0 -120 -2 -130 -19z"/>
<path d="M22921 6646 c-8 -9 -11 -57 -9 -147 l3 -134 48 -3 c74 -5 77 1 77
147 0 85 -4 131 -12 139 -17 17 -93 15 -107 -2z"/>
<path d="M23175 6648 c-3 -8 -4 -75 -3 -149 l3 -134 55 0 55 0 0 145 0 145
-53 3 c-37 2 -54 -1 -57 -10z"/>
<path d="M24924 6637 c-3 -8 -4 -43 -2 -78 l3 -64 66 -3 c83 -4 91 5 87 90
l-3 63 -73 3 c-55 2 -74 -1 -78 -11z"/>
<path d="M12430 6596 c-18 -8 -20 -19 -20 -126 0 -77 4 -120 12 -128 18 -18
232 -16 247 2 8 9 11 54 9 132 l-3 119 -112 5 c-62 3 -122 1 -133 -4z"/>
<path d="M11979 6573 c-5 -14 -9 -67 -8 -117 2 -125 3 -126 140 -126 139 0
139 0 139 131 0 143 4 139 -141 139 l-119 0 -11 -27z"/>
<path d="M15656 6584 c-19 -18 -21 -65 -4 -82 9 -9 77 -12 244 -12 229 0 233
0 248 22 21 30 20 43 -6 68 -21 19 -34 20 -244 20 -189 0 -225 -2 -238 -16z"/>
<path d="M24277 6562 c-16 -17 -17 -82 -17 -738 0 -395 4 -725 9 -733 5 -8 14
-10 21 -6 9 5 11 4 6 -3 -10 -16 46 -16 62 0 9 9 12 187 12 738 0 692 -1 728
-18 743 -24 22 -55 21 -75 -1z"/>
<path d="M24576 6558 c-14 -20 -16 -106 -16 -733 0 -790 -3 -759 63 -753 23 2
32 8 31 20 -1 10 2 15 7 12 5 -3 9 303 9 725 0 712 0 731 -19 741 -31 16 -59
12 -75 -12z"/>
<path d="M4584 6535 c-20 -30 -10 -63 23 -76 13 -5 128 -9 254 -9 216 0 230 1
249 20 24 24 26 53 4 74 -13 14 -51 16 -264 16 l-250 0 -16 -25z"/>
<path d="M9603 6518 c-9 -10 -11 -72 -4 -110 0 -5 28 -8 61 -8 l61 0 -3 63 -3
62 -51 3 c-33 2 -55 -2 -61 -10z"/>
<path d="M9848 6519 c-15 -8 -17 -19 -12 -62 4 -29 7 -53 8 -54 1 -2 87 -5
104 -4 9 1 12 18 10 64 l-3 62 -45 2 c-25 2 -53 -2 -62 -8z"/>
<path d="M10085 6521 c-6 -5 -8 -35 -7 -65 l4 -56 59 0 60 0 -3 63 -3 62 -50
3 c-28 2 -55 -2 -60 -7z"/>
<path d="M21320 6510 c-11 -11 -17 -28 -15 -41 10 -49 11 -49 284 -49 141 0
261 4 268 8 6 4 14 19 18 33 5 20 1 32 -16 48 -22 20 -32 21 -271 21 -233 0
-249 -1 -268 -20z m21 -13 c-10 -9 -11 -8 -5 6 3 10 9 15 12 12 3 -3 0 -11 -7
-18z"/>
<path d="M30207 6503 c-4 -3 -7 -76 -7 -160 l0 -154 53 3 52 3 3 149 c2 113
-1 151 -10 158 -16 9 -82 11 -91 1z"/>
<path d="M30527 6503 c-4 -3 -7 -76 -7 -160 l0 -154 53 3 52 3 3 137 c4 161
-2 178 -57 178 -21 0 -41 -3 -44 -7z"/>
<path d="M30841 6496 c-12 -14 -15 -264 -4 -293 8 -20 99 -17 107 3 12 30 7
279 -6 292 -17 17 -83 15 -97 -2z"/>
<path d="M7517 6422 c-15 -17 -17 -55 -17 -340 l0 -322 24 -15 c30 -20 71 -6
79 27 4 13 7 158 7 323 0 256 -2 304 -16 323 -18 27 -55 29 -77 4z"/>
<path d="M28232 6424 c-26 -18 -29 -56 -6 -78 14 -14 74 -16 509 -16 435 0
495 2 509 16 22 21 20 50 -4 74 -19 19 -33 20 -503 20 -421 0 -485 -2 -505
-16z"/>
<path d="M8476 6408 c-21 -30 -20 -44 4 -68 19 -19 33 -20 223 -20 185 0 205
2 220 18 22 24 21 55 -1 75 -16 15 -47 17 -225 17 -201 0 -206 0 -221 -22z"/>
<path d="M11106 6378 c5 -7 3 -8 -6 -3 -7 4 -16 2 -21 -6 -5 -8 -9 -484 -9
-1066 0 -1148 -3 -1083 55 -1083 58 0 55 -65 55 1084 0 1007 -1 1054 -18 1069
-21 19 -67 24 -56 5z"/>
<path d="M25402 6318 c-20 -20 -14 -65 10 -82 18 -13 55 -16 195 -16 94 0 183
4 197 10 30 11 42 49 26 79 -10 20 -18 21 -213 21 -145 0 -206 -3 -215 -12z"/>
<path d="M14037 6303 c-3 -10 -4 -38 -4 -63 l2 -45 46 -3 47 -3 3 38 c2 21 3
50 1 66 -3 25 -7 27 -47 27 -33 0 -45 -4 -48 -17z"/>
<path d="M14225 6298 c-3 -13 -4 -41 -3 -63 l3 -40 48 -3 47 -3 0 65 0 66 -45
0 c-38 0 -45 -3 -50 -22z"/>
<path d="M14412 6258 l3 -63 48 -3 48 -3 -3 63 -3 63 -48 3 -48 3 3 -63z"/>
<path d="M19772 6198 l3 -63 45 0 45 0 3 63 3 62 -51 0 -51 0 3 -62z"/>
<path d="M19962 6198 l3 -63 45 0 45 0 0 60 0 60 -48 3 -48 3 3 -63z"/>
<path d="M20152 6198 l3 -63 43 -3 42 -3 0 55 c0 31 1 59 3 64 1 4 -20 8 -46
10 l-48 3 3 -63z"/>
<path d="M20540 6231 c-6 -12 -10 -103 -10 -226 0 -178 2 -206 15 -202 8 4 17
1 21 -5 4 -7 3 -8 -4 -4 -7 4 -12 2 -12 -3 0 -17 57 -13 74 5 14 13 16 47 16
219 0 172 -2 206 -16 219 -22 23 -71 20 -84 -3z"/>
<path d="M20800 6235 c-17 -21 -16 -421 2 -442 6 -8 24 -13 42 -11 50 5 56 30
56 233 0 203 -6 228 -56 233 -19 2 -36 -3 -44 -13z"/>
<path d="M15652 6228 c-18 -18 -14 -63 7 -82 16 -15 45 -16 237 -16 120 1 226
5 235 10 26 14 33 59 13 81 -16 18 -35 19 -249 19 -166 0 -234 -3 -243 -12z"/>
<path d="M26093 6208 c-14 -18 -17 -227 -4 -260 10 -25 15 -28 60 -28 27 0 53
5 56 11 10 14 10 263 1 277 -10 16 -101 15 -113 0z"/>
<path d="M26335 6210 c-8 -13 -8 -267 0 -280 10 -17 105 -9 114 9 13 25 13
208 0 232 -8 15 -8 19 0 15 15 -10 14 7 -1 22 -15 15 -104 16 -113 2z"/>
<path d="M4823 6202 l-223 -2 -16 -25 c-8 -13 -13 -33 -10 -43 12 -38 47 -42
292 -40 220 3 237 4 250 22 29 40 8 84 -41 88 -16 2 -130 2 -252 0z"/>
<path d="M7191 6182 c-8 -14 -16 -292 -12 -404 1 -10 12 -25 25 -33 29 -19 71
-4 80 29 3 11 6 102 6 201 0 147 -3 185 -16 203 -19 28 -69 30 -83 4z"/>
<path d="M26824 6167 c-3 -8 -4 -41 -2 -73 l3 -59 75 0 75 0 0 70 0 70 -73 3
c-55 2 -74 0 -78 -11z"/>
<path d="M9597 6163 c-10 -9 -8 -95 2 -111 5 -9 25 -12 62 -10 l54 3 3 63 3
62 -59 0 c-32 0 -62 -3 -65 -7z"/>
<path d="M9838 6118 c-6 -77 -4 -79 61 -76 l56 3 3 63 3 62 -60 0 -59 0 -4
-52z"/>
<path d="M10078 6115 c-1 -30 -1 -60 0 -65 2 -6 30 -10 63 -10 l59 0 0 65 0
65 -59 0 -59 0 -4 -55z"/>
<path d="M24924 6147 c-3 -8 -4 -41 -2 -73 l3 -59 75 0 75 0 0 70 0 70 -73 3
c-55 2 -74 0 -78 -11z"/>
<path d="M21320 6090 c-25 -25 -26 -52 -2 -73 16 -15 50 -17 274 -17 234 0
256 1 271 18 22 25 21 48 -3 72 -19 19 -33 20 -270 20 -237 0 -251 -1 -270
-20z"/>
<path d="M28240 6067 c-29 -14 -37 -53 -17 -80 12 -18 39 -19 497 -18 267 1
492 1 501 1 9 0 22 13 29 29 16 39 1 66 -41 75 -17 3 -237 6 -488 6 -346 0
-462 -3 -481 -13z"/>
<path d="M11988 6053 c-12 -14 -16 -44 -17 -122 -3 -140 -2 -141 139 -141 140
0 140 0 140 142 0 138 0 138 -142 138 -87 0 -107 -3 -120 -17z"/>
<path d="M12428 6059 c-16 -9 -18 -26 -18 -127 0 -79 4 -122 12 -130 14 -14
232 -17 224 -3 -3 5 2 8 12 7 15 -1 17 12 20 119 2 104 0 121 -15 132 -21 16
-210 17 -235 2z"/>
<path d="M2510 5890 l0 -160 55 0 55 0 0 160 0 160 -55 0 -55 0 0 -160z"/>
<path d="M2820 5890 l0 -161 58 3 57 3 2 158 2 157 -60 0 -59 0 0 -160z"/>
<path d="M3134 5893 l1 -158 58 -3 57 -3 0 161 0 160 -59 0 -59 0 2 -157z"/>
<path d="M3450 5890 l0 -160 55 0 55 0 0 160 0 160 -55 0 -55 0 0 -160z"/>
<path d="M8480 6020 c-11 -11 -20 -27 -20 -35 0 -8 9 -24 20 -35 19 -19 33
-20 223 -20 185 0 205 2 220 18 23 26 21 58 -5 76 -19 13 -57 16 -220 16 -185
0 -199 -1 -218 -20z"/>
<path d="M22917 5964 c-13 -13 -8 -269 5 -282 17 -17 93 -15 107 2 8 9 11 57
9 147 l-3 134 -55 3 c-31 2 -59 0 -63 -4z"/>
<path d="M23175 5960 c-4 -6 -7 -70 -7 -142 -1 -146 0 -148 69 -148 31 0 44 5
50 18 5 9 6 76 3 147 l-5 130 -52 3 c-30 2 -54 -2 -58 -8z"/>
<path d="M25402 5938 c-21 -21 -14 -66 12 -83 21 -14 54 -16 211 -13 171 3
188 5 201 22 18 26 18 51 -2 70 -13 14 -47 16 -213 16 -140 0 -200 -3 -209
-12z"/>
<path d="M14037 5903 c-10 -9 -8 -95 2 -111 5 -8 23 -12 47 -10 l39 3 3 63 3
62 -44 0 c-24 0 -47 -3 -50 -7z"/>
<path d="M14227 5903 c-10 -19 -6 -101 6 -111 7 -6 28 -10 47 -9 l35 2 3 63 3
62 -45 0 c-25 0 -47 -3 -49 -7z"/>
<path d="M14414 5896 c-3 -7 -4 -35 -2 -62 l3 -49 45 0 45 0 3 63 3 62 -46 0
c-29 0 -47 -5 -51 -14z"/>
<path d="M15656 5874 c-19 -18 -21 -65 -4 -82 9 -9 77 -12 244 -12 229 0 233
0 248 22 21 30 20 44 -4 68 -19 19 -33 20 -244 20 -191 0 -227 -2 -240 -16z"/>
<path d="M4586 5824 c-23 -23 -19 -50 10 -73 25 -20 39 -21 244 -21 132 0 229
4 249 11 35 12 49 46 31 78 -10 20 -17 21 -265 21 -217 0 -256 -2 -269 -16z"/>
<path d="M18209 5822 c-17 -11 -19 -27 -19 -122 0 -142 -2 -140 140 -140 142
0 141 0 139 134 -1 55 -5 109 -10 118 -8 14 -28 17 -120 20 -80 2 -117 -1
-130 -10z"/>
<path d="M18676 5825 c-19 -10 -21 -21 -24 -122 -4 -146 -6 -143 143 -143 104
0 115 2 125 20 14 27 11 215 -4 235 -9 13 -33 17 -116 18 -57 1 -113 -3 -124
-8z"/>
<path d="M19147 5831 c-29 -8 -37 -36 -37 -137 0 -135 -1 -134 140 -134 143 0
141 -2 139 141 -1 77 -5 111 -15 119 -12 11 -198 20 -227 11z"/>
<path d="M9598 5808 c-3 -7 -5 -35 -4 -63 l1 -50 63 -3 63 -3 -3 63 -3 63 -56
3 c-39 2 -58 -1 -61 -10z"/>
<path d="M9838 5808 c-4 -11 -3 -88 1 -110 0 -5 28 -8 61 -8 l60 0 0 65 0 65
-59 0 c-38 0 -60 -4 -63 -12z"/>
<path d="M30204 5807 c-2 -7 -3 -78 -2 -157 l3 -145 50 0 50 0 3 144 c2 97 -1
148 -9 157 -15 18 -88 18 -95 1z"/>
<path d="M30527 5813 c-4 -3 -7 -75 -7 -159 l0 -152 28 -4 c15 -2 38 -1 52 2
l25 6 2 144 c1 89 -2 150 -9 157 -11 13 -80 18 -91 6z"/>
<path d="M30842 5808 c-8 -8 -12 -56 -12 -149 0 -159 6 -173 68 -163 20 3 40
11 45 18 11 17 7 279 -5 294 -13 15 -80 16 -96 0z"/>
<path d="M19776 5793 c-3 -3 -6 -33 -6 -65 l0 -58 50 0 51 0 -3 63 -3 62 -41
2 c-23 2 -44 0 -48 -4z"/>
<path d="M19967 5793 c-4 -3 -7 -33 -7 -65 l0 -58 50 0 50 0 0 59 c0 44 -4 60
-16 65 -21 8 -69 8 -77 -1z"/>
<path d="M20153 5786 c-4 -8 -6 -37 -5 -65 l4 -51 43 0 43 0 4 55 c1 30 2 60
0 65 -6 16 -80 12 -89 -4z"/>
<path d="M28225 5694 c-23 -23 -15 -66 15 -81 31 -16 944 -19 984 -3 34 12 44
54 21 80 -18 19 -34 20 -511 20 -441 0 -494 -2 -509 -16z"/>
<path d="M21320 5675 c-26 -31 -14 -92 16 -81 9 3 12 1 9 -4 -4 -7 83 -10 248
-10 233 0 255 1 270 18 22 24 21 55 -1 75 -16 15 -50 17 -274 17 -211 0 -258
-3 -268 -15z"/>
<path d="M24931 5666 c-7 -9 -11 -40 -9 -78 l3 -63 69 -3 c49 -2 72 1 77 10
10 15 12 109 3 132 -8 21 -126 23 -143 2z"/>
<path d="M8480 5630 c-25 -25 -26 -52 -2 -73 16 -15 47 -17 227 -17 186 0 209
2 221 18 19 24 17 56 -4 75 -16 15 -47 17 -220 17 -189 0 -203 -1 -222 -20z"/>
<path d="M26826 5625 c-11 -28 -7 -120 6 -133 14 -14 116 -16 136 -3 9 5 12
28 10 77 l-3 69 -71 3 c-59 2 -73 0 -78 -13z"/>
<path d="M22293 5623 c-23 -4 -23 -7 -23 -142 0 -153 2 -158 62 -159 62 -2 68
12 68 151 0 67 -4 128 -8 134 -9 14 -65 23 -99 16z"/>
<path d="M22527 5614 c-4 -4 -7 -67 -7 -140 0 -147 3 -154 67 -154 60 0 64 11
61 160 l-3 135 -55 3 c-31 2 -59 0 -63 -4z"/>
<path d="M25396 5549 c-16 -23 -7 -66 17 -81 7 -4 96 -8 200 -8 174 0 188 1
207 20 11 11 20 28 20 38 0 26 -16 46 -30 37 -9 -5 -11 -4 -6 3 5 9 -44 12
-193 12 -192 0 -200 -1 -215 -21z"/>
<path d="M11987 5513 c-11 -14 -15 -43 -16 -122 -2 -140 -1 -141 139 -141 140
0 140 0 140 142 0 138 0 138 -142 138 -87 0 -108 -3 -121 -17z"/>
<path d="M12428 5519 c-16 -9 -18 -26 -18 -130 0 -119 0 -120 26 -129 14 -6
63 -10 109 -10 46 0 95 4 109 10 26 9 26 10 26 129 0 109 -2 121 -19 131 -25
13 -211 13 -233 -1z"/>
<path d="M15652 5518 c-20 -20 -14 -65 10 -82 31 -22 444 -24 473 -2 22 16 25
74 4 87 -22 14 -473 11 -487 -3z"/>
<path d="M16387 5523 l-48 -4 3 -142 3 -142 47 -5 c53 -6 91 6 67 21 -10 6
-11 9 -1 9 20 0 17 234 -4 254 -8 9 -16 15 -17 14 -1 -1 -23 -3 -50 -5z"/>
<path d="M16604 5513 c-8 -8 -12 -53 -13 -141 -2 -125 -1 -129 21 -138 13 -5
41 -7 63 -4 l40 5 3 143 c1 78 -1 142 -5 143 -53 5 -99 2 -109 -8z"/>
<path d="M20546 5514 c-23 -23 -24 -425 -1 -444 22 -18 66 -15 82 6 21 28 19
402 -3 432 -18 26 -56 29 -78 6z"/>
<path d="M20806 5517 c-17 -12 -18 -31 -18 -216 1 -111 4 -211 7 -221 5 -15
15 -20 40 -20 62 0 67 19 63 245 -3 181 -5 198 -22 211 -25 18 -47 18 -70 1z"/>
<path d="M13854 5503 c-6 -5 -10 -33 -10 -63 l1 -55 48 -3 48 -3 -3 63 -3 63
-35 3 c-19 1 -40 -1 -46 -5z"/>
<path d="M14041 5496 c-6 -7 -9 -35 -8 -62 l3 -49 47 -3 47 -3 0 63 0 64 -39
1 c-22 1 -44 -4 -50 -11z"/>
<path d="M14224 5497 c-3 -8 -4 -36 -2 -63 l3 -49 48 -3 48 -3 -3 63 -3 63
-43 3 c-30 2 -44 -1 -48 -11z"/>
<path d="M14417 5504 c-4 -4 -7 -34 -7 -66 l0 -58 50 0 51 0 -3 63 -3 62 -40
3 c-23 2 -44 0 -48 -4z"/>
<path d="M14607 5503 c-2 -4 -3 -33 -3 -63 l1 -55 48 -3 48 -3 -3 63 -3 63
-42 3 c-22 2 -43 -1 -46 -5z"/>
<path d="M26097 5486 c-11 -11 -15 -43 -15 -122 0 -59 2 -120 5 -136 5 -26 8
-28 59 -28 31 0 56 5 60 12 9 15 8 263 -1 278 -9 15 -92 12 -108 -4z"/>
<path d="M26342 5491 c-10 -6 -13 -41 -13 -140 0 -72 3 -135 6 -141 9 -14 101
-12 113 3 12 15 13 233 1 265 -7 18 -16 22 -51 22 -24 0 -49 -4 -56 -9z"/>
<path d="M4624 5481 c3 -5 -2 -7 -11 -5 -38 10 -54 -76 -17 -90 7 -3 124 -6
260 -7 228 -1 249 0 261 17 17 23 17 45 -1 70 -13 18 -30 19 -256 22 -152 2
-240 -1 -236 -7z"/>
<path d="M11366 5465 c-12 -31 -7 -260 6 -273 7 -7 34 -12 60 -12 59 0 60 2
56 170 l-3 125 -56 3 c-45 2 -58 0 -63 -13z"/>
<path d="M11606 5464 c-12 -30 -7 -259 6 -272 7 -7 29 -12 49 -12 70 0 69 -3
69 150 0 154 2 150 -75 150 -30 0 -45 -5 -49 -16z"/>
<path d="M9596 5444 c-9 -23 -7 -87 3 -102 5 -9 25 -12 62 -10 l54 3 3 63 3
62 -59 0 c-45 0 -61 -4 -66 -16z"/>
<path d="M9839 5455 c0 -3 0 -27 0 -55 0 -27 0 -55 0 -60 1 -7 23 -10 59 -8
l57 3 3 63 3 62 -61 0 c-33 0 -60 -2 -61 -5z"/>
<path d="M2510 5250 l0 -160 55 0 55 0 0 160 0 160 -55 0 -55 0 0 -160z"/>
<path d="M2820 5250 l0 -161 58 3 57 3 2 158 2 157 -60 0 -59 0 0 -160z"/>
<path d="M3132 5253 l3 -158 58 -3 57 -3 0 161 0 160 -60 0 -61 0 3 -157z"/>
<path d="M3450 5250 l0 -160 55 0 55 0 0 160 0 160 -55 0 -55 0 0 -160z"/>
<path d="M27354 5356 c-3 -7 -4 -42 -2 -77 l3 -64 70 0 70 0 3 69 c2 49 -1 72
-10 77 -22 15 -128 11 -134 -5z"/>
<path d="M27623 5364 c-9 -4 -13 -29 -13 -74 0 -78 2 -80 85 -80 43 0 56 4 65
19 12 24 13 101 1 120 -9 14 -113 25 -138 15z"/>
<path d="M27880 5356 c-14 -14 -13 -119 2 -134 7 -7 37 -12 68 -12 31 0 61 5
68 12 17 17 16 123 -2 137 -17 14 -121 12 -136 -3z"/>
<path d="M7191 5336 c-8 -10 -12 -77 -12 -218 0 -192 1 -204 21 -220 11 -9 28
-15 38 -13 9 2 21 4 26 4 4 1 5 8 2 17 -3 8 -2 13 3 10 17 -11 21 27 21 208 0
148 -3 186 -16 204 -17 25 -65 30 -83 8z"/>
<path d="M7512 5338 c-9 -9 -12 -71 -12 -219 0 -203 0 -208 22 -223 30 -21 44
-20 68 4 19 19 20 33 20 213 0 158 -3 197 -16 215 -17 24 -62 30 -82 10z"/>
<path d="M28220 5331 c-15 -29 -12 -56 8 -74 17 -15 67 -17 509 -17 474 0 490
1 508 20 19 21 14 68 -8 82 -7 4 -236 8 -509 8 -482 0 -498 -1 -508 -19z"/>
<path d="M19772 5268 l3 -63 45 0 45 0 3 63 3 62 -51 0 -51 0 3 -62z"/>
<path d="M19962 5268 l3 -63 45 0 45 0 3 63 3 62 -51 0 -51 0 3 -62z"/>
<path d="M22921 5276 c-8 -9 -11 -57 -9 -147 l3 -134 54 -3 c37 -2 57 1 62 10
14 21 11 262 -3 276 -17 17 -93 15 -107 -2z"/>
<path d="M23180 5280 c-11 -7 -14 -35 -12 -140 1 -72 4 -135 7 -140 7 -12 102
-13 109 -2 2 4 6 68 7 141 2 105 -1 135 -12 142 -18 11 -80 11 -99 -1z"/>
<path d="M21315 5246 c-19 -29 -4 -82 21 -72 8 3 12 2 9 -4 -4 -7 82 -10 244
-10 238 0 252 1 271 20 25 25 26 52 2 73 -16 15 -50 17 -275 17 l-257 0 -15
-24z"/>
<path d="M8480 5240 c-24 -24 -25 -38 -4 -68 15 -22 20 -22 224 -22 176 0 211
2 224 16 20 19 20 44 2 70 -13 18 -29 19 -220 21 -194 2 -208 1 -226 -17z"/>
<path d="M24927 5184 c-4 -4 -7 -38 -7 -75 0 -77 3 -79 83 -79 74 0 78 5 75
86 l-3 69 -70 3 c-39 1 -74 0 -78 -4z"/>
<path d="M25402 5178 c-16 -16 -16 -72 0 -62 7 5 8 3 3 -6 -15 -24 22 -30 211
-30 156 0 194 3 204 15 6 8 8 20 4 26 -4 8 -3 9 4 5 18 -11 15 30 -4 48 -13
14 -47 16 -213 16 -140 0 -200 -3 -209 -12z"/>
<path d="M15658 5169 c-23 -13 -23 -62 -2 -83 14 -14 47 -16 247 -14 l231 3
15 26 c13 24 13 29 -2 53 l-17 26 -228 0 c-135 0 -234 -5 -244 -11z"/>
<path d="M4602 5117 c-32 -15 -40 -54 -15 -79 19 -18 34 -19 269 -19 223 0
250 2 261 18 19 24 16 50 -7 73 -20 20 -32 21 -253 19 -139 -1 -241 -5 -255
-12z"/>
<path d="M30213 5122 c-13 -8 -21 -297 -9 -309 10 -10 70 -11 89 -1 15 8 17
26 17 151 0 98 -4 147 -12 155 -13 13 -66 16 -85 4z"/>
<path d="M30533 5123 c-10 -4 -13 -44 -13 -159 l0 -154 26 -6 c15 -4 39 -3 53
2 l26 9 2 140 c2 77 -1 146 -6 154 -9 14 -63 22 -88 14z"/>
<path d="M30846 5114 c-13 -12 -16 -40 -16 -147 0 -73 4 -138 9 -145 10 -16
69 -23 94 -10 16 8 18 24 16 147 0 76 -4 144 -9 151 -12 20 -76 23 -94 4z"/>
<path d="M9596 5093 c-2 -10 -4 -38 -3 -63 l2 -45 63 -3 62 -3 0 66 0 65 -59
0 c-48 0 -61 -3 -65 -17z"/>
<path d="M13845 5088 c-3 -7 -4 -35 -2 -63 l3 -50 47 -3 47 -3 0 65 0 66 -45
0 c-27 0 -48 -5 -50 -12z"/>
<path d="M14038 5093 c-2 -5 -4 -33 -3 -63 l0 -55 48 -3 47 -3 0 65 0 66 -44
0 c-25 0 -46 -3 -48 -7z"/>
<path d="M14225 5088 c-2 -7 -3 -35 -2 -63 l2 -50 48 -3 47 -3 0 65 0 66 -45
0 c-28 0 -47 -5 -50 -12z"/>
<path d="M14412 5038 l3 -63 45 0 45 0 3 63 3 62 -51 0 -51 0 3 -62z"/>
<path d="M14605 5088 c-2 -7 -3 -35 -2 -63 l2 -50 48 -3 47 -3 0 65 0 66 -45
0 c-28 0 -47 -5 -50 -12z"/>
<path d="M26826 5085 c-11 -28 -7 -120 6 -133 14 -14 116 -16 136 -3 9 5 12
28 10 77 l-3 69 -71 3 c-59 2 -73 0 -78 -13z"/>
<path d="M11987 4972 c-14 -15 -17 -40 -17 -123 0 -68 4 -109 12 -117 17 -17
239 -17 256 0 8 8 12 49 12 119 0 140 1 139 -139 139 -92 0 -110 -3 -124 -18z"/>
<path d="M28227 4972 c-21 -23 -22 -56 -1 -76 14 -14 74 -16 508 -16 465 0
494 1 509 18 21 23 21 41 1 70 l-15 22 -493 0 c-465 0 -494 -1 -509 -18z"/>
<path d="M11383 4969 c-22 -8 -23 -13 -23 -143 0 -84 4 -137 11 -141 17 -11
93 -13 107 -2 14 11 18 272 3 281 -17 11 -76 14 -98 5z"/>
<path d="M18206 4954 c-13 -12 -16 -39 -16 -124 0 -142 -2 -140 139 -140 140
0 141 1 141 138 0 138 -4 142 -144 142 -82 0 -108 -3 -120 -16z"/>
<path d="M18667 4952 c-14 -15 -17 -40 -17 -124 0 -138 0 -138 142 -138 138 0
140 1 137 140 -3 138 -5 140 -142 140 -88 0 -106 -3 -120 -18z"/>
<path d="M19124 4945 c-21 -32 -17 -231 5 -244 8 -5 61 -10 119 -10 142 -2
142 -2 142 140 0 141 2 139 -140 139 -105 0 -110 -1 -126 -25z"/>
<path d="M22272 4931 c-4 -11 -5 -77 -2 -148 l5 -128 54 -3 c35 -2 57 1 62 9
11 19 11 247 -1 269 -15 29 -107 29 -118 1z"/>
<path d="M22532 4938 c-14 -14 -17 -255 -3 -276 5 -9 25 -12 62 -10 l54 3 3
125 c4 168 3 170 -56 170 -26 0 -53 -5 -60 -12z"/>
<path d="M16608 4889 c-16 -9 -18 -27 -18 -144 0 -149 1 -152 70 -150 59 1 60
3 60 156 0 104 -3 139 -12 140 -7 0 -29 2 -48 4 -19 2 -43 -1 -52 -6z"/>
<path d="M8480 4850 c-35 -35 -18 -83 33 -95 12 -3 95 -4 185 -3 149 3 165 5
178 22 8 11 14 30 14 42 0 44 -21 49 -212 51 -166 2 -180 1 -198 -17z"/>
<path d="M19777 4864 c-4 -4 -7 -34 -7 -66 l0 -58 50 0 51 0 -3 63 -3 62 -40
3 c-23 2 -44 0 -48 -4z"/>
<path d="M24276 4844 c-14 -14 -16 -78 -16 -558 0 -513 1 -544 18 -559 24 -22
55 -21 75 1 15 17 17 70 17 559 0 510 -1 541 -18 556 -23 21 -56 22 -76 1z"/>
<path d="M24580 4850 c-13 -8 -15 -54 -18 -290 -2 -173 1 -280 6 -276 6 3 9
-2 8 -11 -2 -25 49 -35 74 -15 20 16 20 26 18 302 -3 264 -4 285 -20 284 -10
-1 -15 2 -12 7 7 12 -37 11 -56 -1z"/>
<path d="M21316 4834 c-22 -21 -20 -50 4 -74 19 -19 33 -20 270 -20 237 0 251
1 270 20 25 25 26 52 2 73 -16 15 -50 17 -275 17 -219 0 -258 -2 -271 -16z"/>
<path d="M15881 4822 c-138 -1 -219 -6 -228 -13 -22 -19 -16 -67 11 -84 21
-14 57 -16 246 -13 206 3 223 4 236 22 26 36 10 80 -31 88 -11 1 -116 2 -234
0z"/>
<path d="M27357 4824 c-4 -4 -7 -38 -7 -75 0 -76 3 -79 78 -79 69 0 73 6 70
86 l-3 69 -65 3 c-36 2 -69 0 -73 -4z"/>
<path d="M27617 4823 c-4 -3 -7 -37 -7 -74 0 -76 3 -79 80 -79 64 0 80 17 80
84 0 28 -5 57 -12 64 -13 13 -130 17 -141 5z"/>
<path d="M27882 4818 c-16 -16 -16 -120 0 -136 17 -17 123 -16 137 2 7 9 11
40 9 78 l-3 63 -65 3 c-42 2 -70 -2 -78 -10z"/>
<path d="M20552 4794 c-22 -15 -22 -20 -22 -223 0 -189 2 -209 18 -224 24 -22
55 -21 75 1 15 16 17 47 17 221 0 131 -3 200 -10 196 -5 -3 -7 0 -4 9 3 8 -3
19 -15 25 -26 14 -32 14 -59 -5z m53 -444 c-3 -5 -12 -10 -18 -10 -7 0 -6 4 3
10 19 12 23 12 15 0z"/>
<path d="M20805 4790 c-16 -18 -18 -40 -17 -227 1 -184 3 -209 19 -220 19 -14
42 -16 59 -5 29 19 34 56 34 235 0 171 -1 186 -21 211 -24 31 -49 33 -74 6z"/>
<path d="M25408 4799 c-26 -15 -23 -64 4 -83 18 -13 56 -16 210 -16 182 0 187
1 202 22 20 29 20 52 0 72 -13 14 -46 16 -207 16 -112 0 -199 -5 -209 -11z"/>
<path d="M2510 4621 c0 -153 1 -160 21 -166 11 -4 36 -4 55 0 l34 6 0 159 0
160 -55 0 -55 0 0 -159z"/>
<path d="M2820 4620 c0 -88 3 -160 8 -161 4 0 16 -2 27 -4 11 -3 35 -2 53 1
l32 6 -2 157 -3 156 -57 3 -58 2 0 -160z"/>
<path d="M3136 4772 c-2 -4 -5 -75 -5 -159 l-2 -151 43 -4 c81 -8 78 -15 78
163 l0 159 -54 0 c-30 0 -57 -3 -60 -8z"/>
<path d="M26094 4763 c-9 -10 -13 -49 -13 -134 1 -67 3 -128 6 -135 7 -19 123
-20 124 -1 4 71 0 257 -6 267 -4 7 -20 10 -36 8 -15 -3 -26 -1 -23 3 8 13 -38
5 -52 -8z"/>
<path d="M4674 4758 c-5 -7 -3 -8 6 -3 8 5 11 4 6 -3 -4 -6 -13 -9 -21 -5 -11
4 -15 -3 -15 -29 0 -19 5 -39 12 -46 9 -9 72 -12 223 -12 193 0 213 2 228 18
22 25 21 48 -3 72 -19 19 -33 20 -224 20 -144 0 -207 -3 -212 -12z"/>
<path d="M29592 4714 l-22 -15 0 -363 c0 -339 1 -364 18 -379 21 -19 49 -22
72 -7 13 8 15 63 18 375 2 249 -1 365 -8 360 -5 -3 -7 0 -4 9 3 8 -3 19 -15
25 -26 14 -32 14 -59 -5z"/>
<path d="M29860 4717 l-25 -13 -3 -556 c-2 -496 0 -558 14 -572 21 -21 57 -20
77 2 15 17 17 71 17 565 0 534 0 547 -20 567 -23 23 -27 24 -60 7z"/>
<path d="M3898 4696 c-17 -12 -18 -53 -19 -595 0 -433 3 -586 12 -597 15 -18
63 -18 78 0 9 11 12 164 13 597 0 550 -1 583 -18 596 -22 16 -44 16 -66 -1z"/>
<path d="M4110 4690 c-19 -19 -20 -33 -20 -240 l0 -221 24 -24 c25 -25 44 -25
74 -2 17 13 18 482 0 471 -7 -5 -8 -3 -3 6 9 14 -11 30 -37 30 -10 0 -27 -9
-38 -20z"/>
<path d="M4327 4692 c-15 -17 -17 -56 -17 -350 0 -287 2 -333 16 -346 21 -21
57 -20 77 2 15 17 17 56 17 349 0 307 -1 331 -18 346 -24 22 -55 21 -75 -1z"/>
<path d="M24934 4697 c-17 -10 -20 -132 -3 -143 6 -3 37 -6 69 -6 32 0 63 3
69 6 14 9 14 133 0 141 -15 10 -118 11 -135 2z"/>
<path d="M13857 4690 c-8 -3 -13 -25 -12 -60 l0 -55 48 -3 48 -3 -3 63 -3 63
-33 0 c-18 0 -38 -2 -45 -5z"/>
<path d="M14040 4685 c-6 -8 -10 -35 -8 -62 l3 -48 48 -3 47 -3 0 60 c0 34 -3
61 -7 62 -45 7 -74 4 -83 -6z"/>
<path d="M14260 4690 l-35 -5 0 -55 0 -55 48 -3 47 -3 0 59 c0 66 -5 71 -60
62z"/>
<path d="M14423 4693 c-9 -3 -13 -25 -13 -64 l0 -59 50 0 50 0 0 60 c0 33 -3
60 -7 61 -31 5 -70 5 -80 2z"/>
<path d="M14617 4688 c-10 -5 -14 -24 -13 -60 l1 -53 48 -3 48 -3 -3 63 -3 63
-32 1 c-18 0 -38 -3 -46 -8z"/>
<path d="M28227 4612 c-21 -23 -22 -56 -1 -76 13 -14 60 -16 364 -16 304 0
351 2 364 16 20 20 20 43 0 72 l-15 22 -348 0 c-324 0 -349 -1 -364 -18z"/>
<path d="M22923 4593 c-18 -7 -18 -264 -1 -281 7 -7 30 -12 53 -12 23 0 46 5
53 12 13 13 18 242 6 272 -4 12 -19 16 -53 15 -25 0 -52 -3 -58 -6z"/>
<path d="M23173 4586 c-4 -8 -6 -74 -3 -148 l5 -133 55 0 55 0 0 145 0 145
-52 3 c-37 2 -54 -1 -60 -12z"/>
<path d="M7195 4491 c-15 -17 -17 -40 -17 -163 1 -123 4 -144 18 -155 25 -19
51 -16 74 7 18 18 20 33 20 144 0 134 -10 182 -36 172 -8 -3 -12 -2 -9 4 11
19 -32 10 -50 -9z"/>
<path d="M7517 4492 c-15 -16 -17 -46 -17 -216 0 -117 4 -205 10 -217 15 -27
64 -25 84 3 13 18 16 57 16 215 0 180 -1 194 -20 213 -25 25 -52 26 -73 2z"/>
<path d="M8510 4472 c-47 -7 -64 -54 -30 -89 18 -20 30 -21 180 -22 157 0 163
1 185 23 25 25 25 56 -1 76 -12 11 -276 20 -334 12z"/>
<path d="M15652 4458 c-17 -17 -15 -64 4 -82 13 -14 49 -16 240 -16 211 0 225
1 244 20 24 24 25 38 4 68 -15 22 -19 22 -248 22 -167 0 -235 -3 -244 -12z"/>
<path d="M11981 4432 c-13 -24 -12 -224 1 -239 7 -9 46 -13 129 -13 143 0 139
-4 139 139 0 132 1 131 -145 131 -100 0 -116 -2 -124 -18z"/>
<path d="M21412 4424 c-24 -17 -30 -62 -10 -82 9 -9 75 -12 233 -12 l222 0 12
24 c17 31 6 65 -26 77 -13 5 -111 9 -216 9 -158 0 -197 -3 -215 -16z m446 -29
c-3 -3 -9 2 -12 12 -6 14 -5 15 5 6 7 -7 10 -15 7 -18z m-444 -31 c3 -8 2 -12
-4 -9 -6 3 -10 10 -10 16 0 14 7 11 14 -7z"/>
<path d="M30213 4434 c-10 -4 -13 -46 -13 -160 l0 -154 26 -6 c15 -4 39 -3 53
2 l26 9 3 144 c1 80 -1 148 -5 152 -11 10 -75 19 -90 13z"/>
<path d="M30532 4432 c-9 -7 -12 -46 -10 -163 l3 -154 38 -3 c64 -5 67 2 67
164 0 78 -3 145 -7 147 -18 10 -79 16 -91 9z"/>
<path d="M30857 4427 l-28 -9 2 -141 c0 -80 5 -147 11 -154 13 -17 69 -17 91
0 16 11 17 30 15 157 l-3 144 -30 6 c-17 4 -43 2 -58 -3z"/>
<path d="M25408 4419 c-11 -6 -18 -22 -18 -40 0 -20 4 -28 12 -23 7 5 8 3 3
-6 -14 -23 19 -30 147 -30 102 0 130 3 142 16 23 22 20 71 -3 84 -25 13 -260
13 -283 -1z"/>
<path d="M4758 4403 c-23 -6 -33 -48 -19 -79 l11 -24 174 0 c169 0 175 1 190
22 21 30 20 44 -4 68 -18 18 -32 20 -177 19 -87 -1 -166 -3 -175 -6z"/>
<path d="M14036 4274 c-3 -9 -6 -31 -6 -49 0 -56 8 -65 56 -65 l44 0 0 65 0
65 -44 0 c-31 0 -46 -5 -50 -16z"/>
<path d="M14225 4278 c-2 -7 -3 -35 -2 -63 l2 -50 48 -3 47 -3 0 65 0 66 -45
0 c-28 0 -47 -5 -50 -12z"/>
<path d="M14417 4284 c-4 -4 -7 -34 -7 -66 l0 -59 48 3 47 3 0 60 0 60 -40 3
c-23 2 -44 0 -48 -4z"/>
<path d="M27354 4277 c-3 -8 -4 -41 -2 -73 l3 -59 73 -3 73 -3 -3 73 -3 73
-68 3 c-51 2 -69 -1 -73 -11z"/>
<path d="M27617 4283 c-12 -12 -8 -131 5 -139 19 -12 131 -5 140 8 9 15 11 99
2 122 -5 12 -21 16 -73 16 -37 0 -71 -3 -74 -7z"/>
<path d="M28230 4255 c-6 -8 -8 -20 -4 -26 4 -8 3 -9 -4 -5 -15 9 -16 -18 -2
-45 10 -18 24 -19 275 -19 226 0 266 2 279 16 22 21 20 50 -4 74 -19 19 -33
20 -274 20 -210 0 -256 -3 -266 -15z"/>
<path d="M2510 3980 l0 -160 55 0 55 0 0 160 0 160 -55 0 -55 0 0 -160z"/>
<path d="M2820 3980 l0 -160 60 0 61 0 -3 158 -3 157 -57 3 -58 3 0 -161z"/>
<path d="M15663 4105 c-25 -18 -31 -63 -11 -83 15 -15 483 -17 473 -2 -4 6 1
7 11 3 14 -5 16 -3 11 11 -5 11 -3 15 5 10 17 -11 0 49 -19 63 -10 8 -82 12
-231 13 -183 0 -221 -2 -239 -15z"/>
<path d="M18206 4084 c-21 -20 -23 -211 -3 -238 10 -14 31 -17 126 -18 97 -1
116 1 126 16 20 26 20 202 0 232 -15 23 -21 24 -125 24 -85 0 -112 -3 -124
-16z"/>
<path d="M18667 4082 c-22 -24 -25 -208 -4 -236 19 -25 235 -26 253 -1 19 26
14 233 -6 245 -8 5 -63 10 -121 10 -90 0 -108 -3 -122 -18z"/>
<path d="M8477 4062 c-22 -24 -21 -48 2 -71 16 -16 36 -19 141 -20 136 -2 160
7 160 59 0 45 -14 50 -155 50 -115 0 -134 -2 -148 -18z"/>
<path d="M20545 4070 c-3 -5 -3 -15 1 -22 4 -7 3 -8 -4 -4 -9 5 -12 -45 -12
-197 0 -185 2 -205 18 -220 23 -21 56 -22 76 -1 14 13 16 47 16 217 0 199 -5
237 -30 222 -9 -5 -11 -4 -6 3 5 8 -3 12 -23 12 -16 0 -33 -4 -36 -10z"/>
<path d="M25408 4039 c-21 -12 -24 -69 -6 -87 8 -8 56 -12 149 -12 128 0 139
1 152 21 15 20 12 53 -6 77 -12 15 -263 17 -289 1z"/>
<path d="M26090 4030 c-13 -24 -11 -236 2 -262 6 -14 21 -18 58 -18 27 0 52 5
56 12 9 15 9 262 0 277 -4 6 -29 11 -56 11 -39 0 -51 -4 -60 -20z"/>
<path d="M21492 4004 c-26 -18 -29 -56 -6 -78 13 -13 45 -16 189 -16 188 0
205 5 205 55 0 47 -30 55 -205 55 -129 0 -165 -3 -183 -16z"/>
<path d="M22919 3904 c-5 -7 -8 -72 -7 -145 l3 -134 60 0 60 0 3 120 c4 162 4
162 -59 167 -30 2 -55 -2 -60 -8z"/>
<path d="M15658 3749 c-22 -13 -24 -62 -2 -83 23 -23 319 -23 352 0 27 18 29
55 4 77 -16 14 -43 17 -178 17 -89 0 -167 -5 -176 -11z"/>
<path d="M30525 3728 c-3 -8 -4 -79 -3 -158 l3 -145 41 -3 c62 -5 65 4 62 169
l-3 144 -48 3 c-33 2 -49 -1 -52 -10z"/>
<path d="M30836 3724 c-12 -30 -7 -279 6 -292 16 -16 83 -15 97 2 12 14 15
264 4 293 -8 20 -99 17 -107 -3z"/>
</g>
</svg>
